<svg width="170" height="170" viewBox="0 0 170 170" fill="none" xmlns="http://www.w3.org/2000/svg">
<rect width="170" height="170" fill="white"/>
<path fill-rule="evenodd" clip-rule="evenodd" d="M106.828 149.654V148.286L106.573 148.288L106.828 149.654Z" fill="#1B0101"/>
<path fill-rule="evenodd" clip-rule="evenodd" d="M113.913 137.075C113.95 137.17 113.986 137.264 114.022 137.359L113.913 137.075Z" fill="#1B0101"/>
<path fill-rule="evenodd" clip-rule="evenodd" d="M94.0051 32.6599L94.0903 32.7437L94.0334 32.5955L94.0051 32.6599Z" fill="#1B0101"/>
<path fill-rule="evenodd" clip-rule="evenodd" d="M77.7354 33.8217L78.8894 15L92.3611 28.2424C91.2145 30.8286 89.0732 32.9761 86.214 34.0668C83.3549 35.1575 80.3219 34.9838 77.7354 33.8217Z" fill="#1B0101"/>
<path fill-rule="evenodd" clip-rule="evenodd" d="M113.913 137.075C113.95 137.17 113.986 137.264 114.022 137.359L113.913 137.075ZM147.404 148.028L147.235 148.028C147.289 148.029 147.347 148.028 147.404 148.028Z" fill="#1B0101"/>
<path fill-rule="evenodd" clip-rule="evenodd" d="M96.2376 84.8852L95.7711 85.3415L96.974 88.7879L97.5134 88.2613L96.2376 84.8852Z" fill="#1B0101"/>
<path fill-rule="evenodd" clip-rule="evenodd" d="M47.0646 143.331C46.6972 142.306 46.4715 141.139 46.5695 139.831L47.7349 136.863L96.974 88.7879L97.5134 88.2613L96.2376 84.8852L95.7711 85.3415L50.6691 129.456L50.6273 129.497L47.0646 137.517H37.6333C37.4452 137.916 37.2516 138.303 37.0525 138.679C35.3166 141.956 33.1667 144.362 30.6027 145.896C27.8591 147.492 25.1726 148.29 22.5433 148.29H21V150H55.467V148.29H53.9237C52.5518 148.29 51.18 147.891 49.8082 147.093C48.5507 146.181 47.6362 144.927 47.0646 143.331Z" fill="#1B0101"/>
<path fill-rule="evenodd" clip-rule="evenodd" d="M114.022 137.359L113.913 137.075C113.95 137.17 113.986 137.264 114.022 137.359Z" fill="#1B0101"/>
<path d="M106.828 148.286V149.654H149L148.734 148.019L148.24 148.022L147.984 148.024L147.49 148.027L147.482 148.027L147.404 148.028C147.347 148.028 147.289 148.029 147.235 148.028C144.362 148.047 140.482 147.15 137.347 145.327C134.211 143.372 130.603 135.692 130.603 135.692L128.104 130.339L94.0903 32.7437L94.0051 32.6599C92.8585 35.2462 90.7172 37.3937 87.858 38.4843C84.9989 39.575 81.8979 39.6465 79.3113 38.4843C78.5111 40.5363 77.9305 41.9891 77.2446 43.4711L76.3872 45.523L37.0525 138.679C37.2516 138.303 37.4452 137.916 37.6333 137.517H47.0646L50.6273 129.497L50.6691 129.456L82.7482 48.0309L95.7711 85.3415L96.2376 84.8852L97.5134 88.2613L96.974 88.7879L113.938 137.39L114.022 137.359L113.913 137.075C113.95 137.17 113.986 137.264 114.022 137.359L114.106 137.644C115.274 140.743 116.188 143.167 114.61 145.077C112.75 147.194 110.635 148.261 108.263 148.277L108.259 148.277L106.828 148.286Z" fill="#1B0101"/>
</svg>
