<svg width="144" height="58" viewBox="0 0 144 58" fill="none" xmlns="http://www.w3.org/2000/svg">
<path fill-rule="evenodd" clip-rule="evenodd" d="M78.3298 57.8251C77.8859 57.8251 77.4869 57.8217 77.1239 57.8034V57.8251H78.3298ZM82.0177 57.8251H82.8089V57.6341C82.5601 57.6912 82.2963 57.7526 82.0177 57.8251Z" fill="#1E1E1E"/>
<path d="M140.899 26.3102C142.863 29.3166 144 33.4114 144 37.1434C144 40.9273 142.863 45.0222 140.899 48.0285C138.884 51.0867 135.989 53.2637 133.147 55.1815C132.217 55.7517 131.235 56.2182 130.253 56.6329C125.808 58.3952 120.847 58.3952 116.402 56.6847C115.317 56.2701 114.283 55.7517 113.353 55.1815C110.51 53.2637 107.616 51.0867 105.601 48.0285C103.637 45.0222 102.5 40.9273 102.5 37.1434C102.5 33.4114 103.637 29.3166 105.601 26.3102C107.616 23.252 110.51 21.075 113.353 19.1572C114.283 18.5352 115.317 18.0687 116.402 17.654C120.847 15.9435 125.808 15.9435 130.253 17.7058C131.235 18.1205 132.217 18.587 133.147 19.1572C135.989 21.075 138.884 23.252 140.899 26.3102ZM137.54 46.2143C138.625 43.2598 139.09 40.2016 139.09 37.1434C139.09 34.1371 138.625 31.0789 137.54 28.0726C136.454 25.1699 134.852 22.3709 132.268 20.3494C132.165 20.2975 132.062 20.1939 131.958 20.142C126.738 16.4618 119.761 16.4618 114.541 20.142C114.438 20.1939 114.335 20.2975 114.231 20.3494C111.647 22.3709 110.045 25.1699 108.96 28.0726C107.875 31.0789 107.409 34.1371 107.409 37.1434C107.409 40.2016 107.875 43.2598 108.96 46.2143C110.045 49.1688 111.647 51.9679 114.231 53.9894C114.335 54.0412 114.438 54.1449 114.541 54.1967C119.761 57.8769 126.738 57.8769 131.958 54.1967C132.062 54.1449 132.165 54.0412 132.268 53.9894C134.852 51.9679 136.454 49.1688 137.54 46.2143Z" fill="#1E1E1E"/>
<path d="M101.018 15.0623V15.5807H100.346C99.4504 15.5807 98.6752 15.9089 98.0205 16.5655C97.4004 17.1875 97.073 17.9477 97.0386 18.8462L96.9681 51.4153C97.028 52.259 97.3529 52.9932 97.943 53.6179C98.5976 54.2399 99.3729 54.5509 100.269 54.5509H100.941V55.0692H89.6223V54.5509H90.2941C91.1899 54.5509 91.9479 54.2399 92.5681 53.6179C93.2227 52.9613 93.5746 52.1838 93.6091 51.2854L93.6722 18.718C93.6111 17.8752 93.2689 17.1577 92.6456 16.5655C92.0255 15.9089 91.2675 15.5807 90.3717 15.5807H89.6998V15.0623H101.018Z" fill="#1E1E1E"/>
<path fill-rule="evenodd" clip-rule="evenodd" d="M36.6462 57.8254V57.238L36.537 57.2387L36.6462 57.8254Z" fill="#1E1E1E"/>
<path fill-rule="evenodd" clip-rule="evenodd" d="M39.6709 52.4233C39.6868 52.4642 39.7024 52.5048 39.7175 52.5453L39.6709 52.4233Z" fill="#1E1E1E"/>
<path fill-rule="evenodd" clip-rule="evenodd" d="M31.171 7.58382L31.2074 7.61979L31.1831 7.55617L31.171 7.58382Z" fill="#1E1E1E"/>
<path fill-rule="evenodd" clip-rule="evenodd" d="M24.2243 8.08274L24.717 0L30.469 5.68676C29.9795 6.79739 29.0652 7.71961 27.8444 8.18799C26.6237 8.65637 25.3287 8.5818 24.2243 8.08274Z" fill="#1E1E1E"/>
<path fill-rule="evenodd" clip-rule="evenodd" d="M39.6709 52.4233C39.6868 52.4642 39.7024 52.5048 39.7175 52.5453L39.6709 52.4233Z" fill="#1E1E1E"/>
<path fill-rule="evenodd" clip-rule="evenodd" d="M39.7175 52.5453L39.6709 52.4233C39.6868 52.4642 39.7024 52.5048 39.7175 52.5453Z" fill="#1E1E1E"/>
<path fill-rule="evenodd" clip-rule="evenodd" d="M78.3298 57.8251C77.8859 57.8251 77.4869 57.8217 77.1239 57.8034C75.7436 57.7337 74.8839 57.4478 74.0553 56.3089C73.3366 55.2554 73.2367 53.9647 73.126 52.5354C73.0815 51.9604 73.0352 51.3631 72.9463 50.7498C72.8042 49.6093 72.5206 48.6545 72.2114 47.6131C72.099 47.2347 71.9832 46.8448 71.8696 46.4303C71.5954 45.3303 70.8342 44.1937 70.0967 43.1685L69.995 43.0276L69.9491 42.9643L69.7834 42.7364C69.5883 42.4682 69.4003 42.2097 69.2295 41.964C68.3768 40.6422 67.1558 39.5926 65.5666 38.8151C64.0161 38.0376 61.9812 37.6488 59.4617 37.6488H56.9616V50.0695C56.9616 51.9743 57.0972 53.3544 57.3686 54.2097C57.6399 55.026 58.1438 55.5703 58.8803 55.8424C59.6167 56.0757 60.6439 56.2701 61.9618 56.4256L63.1246 56.5422V58L54.5361 57.8254L54.5196 57.8251H45.8565L36.6462 57.8254V57.238L37.2585 57.2341C38.2714 57.2271 39.1747 56.769 39.9686 55.8597C40.6424 55.0396 40.2523 53.9988 39.7536 52.6681L39.7175 52.5453C39.7024 52.5048 39.6868 52.4642 39.6709 52.4233L39.7175 52.5453L39.6819 52.559L32.4386 31.6873L11.415 52.3325L10.9174 53.6069C10.8756 54.1687 10.9719 54.6698 11.1288 55.1102C11.3728 55.7956 11.7633 56.3341 12.3002 56.7257C12.886 57.0684 13.4717 57.2397 14.0574 57.2397H14.7164V57.974H0V57.2397H0.658942C1.78158 57.2397 2.92863 56.897 4.10008 56.2117C5.19482 55.5529 6.11278 54.5198 6.85395 53.1124L23.6487 13.1077L24.0148 12.2265C24.3076 11.5901 24.5555 10.9662 24.8972 10.085C26.0016 10.5841 27.3256 10.5534 28.5464 10.085C29.7672 9.61666 30.6814 8.69445 31.171 7.58382L31.2074 7.61979L45.7304 49.5307L46.7973 51.8297C46.7973 51.8297 48.4555 55.0029 49.7944 55.8424C49.9465 55.8018 49.9714 55.8857 50.1008 55.8424C50.8373 55.5703 51.3412 55.026 51.6125 54.2097C51.8839 53.3544 52.0195 51.9743 52.0195 50.0695V24.1786C52.0195 22.2348 51.8839 20.8547 51.6125 20.0384C51.3412 19.222 50.8373 18.6972 50.1008 18.4639C49.4031 18.1918 48.376 17.978 47.0193 17.8225L45.8565 17.7058V16.248L54.4615 16.423H62.6013C65.2371 16.423 67.6791 16.734 69.9272 17.356C72.1754 17.9391 73.9778 18.9693 75.3344 20.4465C76.7298 21.9238 77.4275 23.9842 77.4275 26.6277C77.4275 28.9602 76.9043 30.8651 75.8577 32.3424C74.8499 33.7807 73.4933 34.8887 71.7878 35.6662C70.121 36.4048 68.2993 36.9296 66.3224 37.2406C69.1908 37.435 71.5164 38.4263 73.2995 40.2146C75.1212 41.964 76.2841 44.5492 76.788 47.9702C77.1368 50.1472 77.5632 51.8577 78.0671 53.1017C78.6097 54.3069 79.1912 55.1621 79.8113 55.6675C80.1338 55.8958 80.4563 56.0682 80.7788 56.1848C80.9149 56.0759 81.0468 55.9575 81.1744 55.8295C82.0746 54.9267 82.5483 53.8576 82.5957 52.6223V10.0021H69.236C68.0516 10.0496 67.0567 10.4772 66.2514 11.2849C65.446 12.0927 65.0433 13.0905 65.0433 14.2783V14.6642H64.3327V6.58105C64.8064 6.7711 65.5171 6.96116 66.4646 7.15122C67.4594 7.34127 68.549 7.50757 69.7334 7.65011C70.9178 7.79266 72.0074 7.86393 73.0023 7.86393H96.8082C97.8504 7.86393 98.94 7.79266 100.077 7.65011C101.261 7.50757 102.351 7.34127 103.346 7.15122C104.341 6.96116 105.051 6.7711 105.478 6.58105V14.6606H104.767V14.2783C104.767 13.0905 104.341 12.0927 103.488 11.2849C102.683 10.4772 101.711 10.0496 100.574 10.0021H87.2148V52.6223C87.2621 53.8576 87.7122 54.9267 88.5649 55.8295C89.4651 56.6847 90.531 57.1123 91.7627 57.1123H92.6865V57.8251H82.8089V57.6341C82.5601 57.6912 82.2963 57.7526 82.0177 57.8251H78.3298ZM62.7176 17.9391H56.9616V36.0744H61.8455C65.5666 36.0744 68.1636 35.3163 69.6365 33.8002C71.1482 32.284 72.9463 30.025 72.9463 26.9927C72.9463 24.1159 71.2257 21.8849 69.8691 20.3299C68.5124 18.736 66.1286 17.9391 62.7176 17.9391ZM31.925 30.2072L26.3646 14.1847L12.6678 49.1518L31.925 30.2072Z" fill="#1E1E1E"/>
</svg>
