<svg width="128" height="135" viewBox="0 0 128 135" fill="none" xmlns="http://www.w3.org/2000/svg">
<path fill-rule="evenodd" clip-rule="evenodd" d="M85.8284 134.654V133.286L85.5727 133.288L85.8284 134.654Z" fill="#1B0101"/>
<path fill-rule="evenodd" clip-rule="evenodd" d="M92.9127 122.075C92.9498 122.17 92.9863 122.264 93.0218 122.359L92.9127 122.075Z" fill="#1B0101"/>
<path fill-rule="evenodd" clip-rule="evenodd" d="M73.0051 17.6599L73.0903 17.7437L73.0334 17.5955L73.0051 17.6599Z" fill="#1B0101"/>
<path fill-rule="evenodd" clip-rule="evenodd" d="M56.7354 18.8217L57.8894 0L71.3611 13.2424C70.2145 15.8286 68.0732 17.9761 65.214 19.0668C62.3549 20.1575 59.3219 19.9838 56.7354 18.8217Z" fill="#1B0101"/>
<path fill-rule="evenodd" clip-rule="evenodd" d="M92.9127 122.075C92.9498 122.17 92.9863 122.264 93.0218 122.359L92.9127 122.075ZM126.404 133.028L126.235 133.028C126.289 133.029 126.347 133.028 126.404 133.028Z" fill="#1B0101"/>
<path fill-rule="evenodd" clip-rule="evenodd" d="M75.2376 69.8852L74.7711 70.3415L75.974 73.7879L76.5134 73.2613L75.2376 69.8852Z" fill="#1B0101"/>
<path fill-rule="evenodd" clip-rule="evenodd" d="M26.0646 128.331C25.6972 127.306 25.4715 126.139 25.5695 124.831L26.7349 121.863L75.974 73.7879L76.5134 73.2613L75.2376 69.8852L74.7711 70.3415L29.6691 114.456L29.6273 114.497L26.0646 122.517H16.6333C16.4452 122.916 16.2516 123.303 16.0525 123.679C14.3166 126.956 12.1667 129.362 9.60273 130.896C6.85909 132.492 4.17262 133.29 1.5433 133.29H0V135H34.467V133.29H32.9237C31.5518 133.29 30.18 132.891 28.8082 132.093C27.5507 131.181 26.6362 129.927 26.0646 128.331Z" fill="#1B0101"/>
<path fill-rule="evenodd" clip-rule="evenodd" d="M93.0218 122.359L92.9127 122.075C92.9498 122.17 92.9863 122.264 93.0218 122.359Z" fill="#1B0101"/>
<path d="M85.8284 133.286V134.654H128L127.734 133.019L127.24 133.022L126.984 133.024L126.49 133.027L126.482 133.027L126.404 133.028C126.347 133.028 126.289 133.029 126.235 133.028C123.362 133.047 119.482 132.15 116.347 130.327C113.211 128.372 109.603 120.692 109.603 120.692L107.104 115.339L73.0903 17.7437L73.0051 17.6599C71.8585 20.2462 69.7172 22.3937 66.858 23.4843C63.9989 24.575 60.8979 24.6465 58.3113 23.4843C57.5111 25.5363 56.9305 26.9891 56.2446 28.4711L55.3872 30.523L16.0525 123.679C16.2516 123.303 16.4452 122.916 16.6333 122.517H26.0646L29.6273 114.497L29.6691 114.456L61.7482 33.0309L74.7711 70.3415L75.2376 69.8852L76.5134 73.2613L75.974 73.7879L92.9383 122.39L93.0218 122.359L92.9127 122.075C92.9498 122.17 92.9863 122.264 93.0218 122.359L93.1062 122.644C94.2743 125.743 95.1879 128.167 93.6098 130.077C91.7505 132.194 89.6348 133.261 87.2627 133.277L87.2592 133.277L85.8284 133.286Z" fill="#1B0101"/>
</svg>
